<mxfile host="65bd71144e">
    <diagram id="0VzQP5eWg0w2jUlnMaa5" name="Page-1">
        <mxGraphModel dx="1643" dy="355" grid="1" gridSize="10" guides="1" tooltips="1" connect="1" arrows="1" fold="1" page="1" pageScale="1" pageWidth="827" pageHeight="1169" math="0" shadow="0">
            <root>
                <mxCell id="0"/>
                <mxCell id="1" parent="0"/>
                <mxCell id="5" value="" style="edgeStyle=none;html=1;entryX=0.5;entryY=0;entryDx=0;entryDy=0;" parent="1" target="94" edge="1">
                    <mxGeometry relative="1" as="geometry">
                        <mxPoint x="99.5" y="105" as="sourcePoint"/>
                        <mxPoint x="99.5" y="135" as="targetPoint"/>
                    </mxGeometry>
                </mxCell>
                <mxCell id="26" value="&lt;font color=&quot;#000000&quot;&gt;Remember! &lt;br&gt;%20 for spaces in URI params&lt;/font&gt;" style="ellipse;shape=cloud;whiteSpace=wrap;html=1;fillColor=#bac8d3;strokeColor=#23445d;" parent="1" vertex="1">
                    <mxGeometry x="-10" y="920" width="320" height="190" as="geometry"/>
                </mxCell>
                <mxCell id="77" value="A) Files to create &amp;amp; install packages" style="shape=ext;double=1;rounded=0;whiteSpace=wrap;html=1;fillColor=#6a00ff;fontColor=#ffffff;strokeColor=#3700CC;" parent="1" vertex="1">
                    <mxGeometry x="40" y="25" width="120" height="80" as="geometry"/>
                </mxCell>
                <mxCell id="81" value="&lt;font color=&quot;#000000&quot;&gt;Remember! &lt;br&gt;npm run dev&lt;/font&gt;" style="ellipse;shape=cloud;whiteSpace=wrap;html=1;fillColor=#bac8d3;strokeColor=#23445d;" parent="1" vertex="1">
                    <mxGeometry x="290" y="920" width="320" height="190" as="geometry"/>
                </mxCell>
                <mxCell id="102" value="" style="edgeStyle=none;html=1;" parent="1" source="94" target="98" edge="1">
                    <mxGeometry relative="1" as="geometry"/>
                </mxCell>
                <mxCell id="94" value="B) SPRINT 1&lt;br&gt;GET &amp;amp; DELETE" style="rounded=0;whiteSpace=wrap;html=1;fillColor=#60a917;fontColor=#ffffff;strokeColor=#2D7600;" parent="1" vertex="1">
                    <mxGeometry x="40" y="150" width="120" height="60" as="geometry"/>
                </mxCell>
                <mxCell id="103" value="" style="edgeStyle=none;html=1;" parent="1" source="98" edge="1">
                    <mxGeometry relative="1" as="geometry">
                        <mxPoint x="100" y="310" as="targetPoint"/>
                    </mxGeometry>
                </mxCell>
                <mxCell id="98" value="C) SPRINT 2&lt;br&gt;INVALID DELETE &amp;amp;&lt;br&gt;POST" style="rounded=0;whiteSpace=wrap;html=1;fillColor=#fa6800;fontColor=#000000;strokeColor=#C73500;" parent="1" vertex="1">
                    <mxGeometry x="40" y="230" width="120" height="60" as="geometry"/>
                </mxCell>
                <mxCell id="106" value="" style="edgeStyle=none;html=1;" parent="1" source="104" target="105" edge="1">
                    <mxGeometry relative="1" as="geometry"/>
                </mxCell>
                <mxCell id="104" value="&lt;span style=&quot;color: rgb(255, 255, 255);&quot;&gt;D) SPRINT 3&lt;/span&gt;&lt;br style=&quot;color: rgb(255, 255, 255);&quot;&gt;&lt;span style=&quot;color: rgb(255, 255, 255);&quot;&gt;INVALID POST&lt;/span&gt;" style="rounded=0;whiteSpace=wrap;html=1;fillColor=#e51400;fontColor=#ffffff;strokeColor=#B20000;" parent="1" vertex="1">
                    <mxGeometry x="40" y="310" width="120" height="60" as="geometry"/>
                </mxCell>
                <mxCell id="111" value="" style="edgeStyle=none;html=1;" parent="1" source="105" target="110" edge="1">
                    <mxGeometry relative="1" as="geometry"/>
                </mxCell>
                <mxCell id="105" value="E) END TO END TESTING" style="rounded=0;whiteSpace=wrap;html=1;fillColor=#6d8764;fontColor=#ffffff;strokeColor=#3A5431;" parent="1" vertex="1">
                    <mxGeometry x="40" y="400" width="120" height="60" as="geometry"/>
                </mxCell>
                <mxCell id="110" value="STRETCH GOALS" style="ellipse;whiteSpace=wrap;html=1;fillColor=#e3c800;strokeColor=#B09500;fontColor=#000000;rounded=0;" parent="1" vertex="1">
                    <mxGeometry x="60" y="500" width="80" height="80" as="geometry"/>
                </mxCell>
                <mxCell id="112" value="&lt;u&gt;TIMETABLE&lt;/u&gt;&lt;br&gt;&lt;br&gt;11:45-:12:30 - Sprint 1&lt;br&gt;12:30-13:30 -LUNCH&lt;br&gt;13:30-14:15 - Sprint 2&lt;br&gt;" style="rounded=0;whiteSpace=wrap;html=1;" vertex="1" parent="1">
                    <mxGeometry x="300" y="25" width="200" height="220" as="geometry"/>
                </mxCell>
            </root>
        </mxGraphModel>
    </diagram>
</mxfile>